<?xml version="1.0" encoding="UTF-8"?>
<svg width="390px" height="390px" viewBox="0 0 390 390" version="1.1" xmlns="http://www.w3.org/2000/svg" xmlns:xlink="http://www.w3.org/1999/xlink">
    <!-- Generator: Sketch 52.5 (67469) - http://www.bohemiancoding.com/sketch -->
    <title>iconfinder_sick_3713824</title>
    <desc>Created with Sketch.</desc>
    <g id="Page-1" stroke="none" stroke-width="1" fill="none" fill-rule="evenodd">
        <g id="iconfinder_sick_3713824" fill="#654DBE">
            <path d="M195,9.140625 C297.647298,9.140625 380.859375,92.3527016 380.859375,195 C380.859375,297.647298 297.647298,380.859375 195,380.859375 C92.3527016,380.859375 9.140625,297.647298 9.140625,195 C9.24139986,92.3944729 92.3944729,9.24139986 195,9.140625 Z M195,1.89431804e-14 C87.3044738,-6.59444907e-15 1.31888981e-14,87.3044738 0,195 C-1.31888981e-14,302.695526 87.3044738,390 195,390 C302.695526,390 390,302.695526 390,195 C390,143.282784 369.455416,93.6837715 332.885822,57.1141777 C296.316229,20.5445839 246.717216,3.16676612e-15 195,1.89431804e-14 Z" id="Shape" fill-rule="nonzero"></path>
            <path d="M140.951504,154.146344 C139.968305,153.443528 138.746191,153.166964 137.558782,153.378572 C136.371372,153.59018 135.317855,154.272284 134.634101,155.272167 L130.493028,161.08385 L126.382183,155.150457 C125.484531,153.700298 123.857424,152.876305 122.165665,153.015144 C120.473907,153.153983 119.000873,154.232399 118.348415,155.809773 C117.695958,157.387146 117.973366,159.199261 119.067296,160.505724 L125.112657,169.147178 L119.067296,177.81906 C118.37877,178.806616 118.109675,180.029703 118.319582,181.21756 C118.529489,182.405418 119.201082,183.460059 120.185687,184.148013 C120.939792,184.703733 121.850618,185.002251 122.785193,184.999987 C124.263554,184.990808 125.647209,184.266074 126.50309,183.052617 L130.613936,177.119224 L134.755008,183.052617 C135.443446,184.047663 136.499169,184.723626 137.686277,184.929463 C138.873384,185.135299 140.092931,184.853853 141.072411,184.148013 C142.058931,183.460659 142.729833,182.403214 142.934444,181.213159 C143.139056,180.023105 142.860226,178.800191 142.160576,177.81906 L136.115215,169.147178 L142.160576,160.505724 C142.849932,159.504765 143.110209,158.266692 142.88277,157.070427 C142.655332,155.874163 141.959307,154.820329 140.951504,154.146344 Z" id="Path"></path>
            <path d="M267.069405,169.108877 L273.173068,160.379525 C274.62258,158.291518 274.11703,155.415366 272.04389,153.955459 C269.97075,152.495553 267.115075,153.004728 265.665562,155.092734 L261.484553,160.963531 L257.334062,154.969785 C256.396392,153.619082 254.814487,152.874809 253.184237,153.017327 C251.553987,153.159844 250.123064,154.167501 249.430484,155.660722 C248.737904,157.153943 248.888886,158.905873 249.826557,160.256576 L255.93022,168.985929 L249.826557,177.746018 C249.131391,178.743618 248.859701,179.979147 249.071632,181.179087 C249.283563,182.379027 249.961633,183.444396 250.955734,184.139347 C251.717112,184.70072 252.636721,185.002274 253.580309,184.999987 C255.072928,184.990715 256.469927,184.258608 257.334062,183.032809 L261.484553,177.039064 L265.665562,183.032809 C266.529698,184.258608 267.926697,184.990715 269.419315,184.999987 C270.362903,185.002274 271.282512,184.70072 272.04389,184.139347 C273.037991,183.444396 273.716061,182.379027 273.927992,181.179087 C274.139923,179.979147 273.868233,178.743618 273.173068,177.746018 L267.069405,169.108877 Z" id="Path"></path>
            <path d="M263.42298,268 L127.57702,268 C125.049202,268 123,265.985281 123,263.5 C123,261.014719 125.049202,259 127.57702,259 L263.42298,259 C265.950798,259 268,261.014719 268,263.5 C268,265.985281 265.950798,268 263.42298,268 Z" id="Path"></path>
        </g>
    </g>
</svg>